<svg width="16" height="16" viewBox="0 0 16 16" fill="none" xmlns="http://www.w3.org/2000/svg">
<g clip-path="url(#clip0_2_24)">
<path fill-rule="evenodd" clip-rule="evenodd" d="M8.39126 0C8.45904 0 8.51398 0.0523801 8.51398 0.116913V0.239364C8.51398 0.303897 8.45904 0.356277 8.39126 0.356277H8.25039V0.750704C12.5527 0.876693 16 4.24071 16 8.37297C16 12.5856 12.4185 16 8.00044 16C3.58233 16 0 12.5856 0 8.37297C0 4.24102 3.44759 0.877078 7.7496 0.750781V0.356277H7.60874C7.54096 0.356277 7.4861 0.303897 7.4861 0.239364V0.116913C7.4861 0.0523801 7.54096 0 7.60874 0H8.39126ZM8.20045 1.75062V2.41987C8.20045 2.5254 8.11073 2.61093 8.00004 2.61093C7.88934 2.61093 7.79955 2.5254 7.79955 2.41987V1.75062C4.11975 1.85038 1.15737 4.67406 1.05313 8.18221H1.75514C1.86584 8.18221 1.95564 8.26775 1.95564 8.37328C1.95564 8.47888 1.86584 8.56441 1.75514 8.56441H1.05313C1.15786 12.0723 4.11999 14.8962 7.79955 14.996V14.3268C7.79955 14.2212 7.88934 14.1356 8.00004 14.1356C8.11073 14.1356 8.20045 14.2212 8.20045 14.3268V14.996C11.8803 14.8966 14.8421 12.0725 14.9469 8.56441H14.2449C14.1342 8.56441 14.0444 8.47888 14.0444 8.37328C14.0444 8.26775 14.1342 8.18221 14.2449 8.18221H14.9469C14.8426 4.67375 11.8807 1.84999 8.20045 1.75062ZM7.99999 8.01702C8.20637 8.01702 8.37371 8.17655 8.37371 8.3733C8.37371 8.3936 8.37088 8.41314 8.3675 8.43245L10.7448 10.4819C10.8058 10.5345 10.8498 10.6026 10.8717 10.6782L10.9038 10.7894C10.9195 10.8435 10.8709 10.8948 10.8129 10.8854L10.6935 10.866C10.6124 10.8529 10.5369 10.8179 10.4759 10.7653L8.09818 8.7155C8.06672 8.72381 8.0342 8.72958 7.99999 8.72958C7.79369 8.72958 7.62628 8.57005 7.62628 8.3733C7.62628 8.17655 7.79369 8.01702 7.99999 8.01702Z" fill="white"/>
</g>
<defs>
<clipPath id="clip0_2_24">
<rect width="16" height="16" fill="white"/>
</clipPath>
</defs>
</svg>
